<?xml version="1.0" encoding="UTF-8" standalone="no"?>
<!-- Generator: Adobe Illustrator 19.0.0, SVG Export Plug-In . SVG Version: 6.00 Build 0)  -->

<svg
   xmlns:dc="http://purl.org/dc/elements/1.1/"
   xmlns:cc="http://creativecommons.org/ns#"
   xmlns:rdf="http://www.w3.org/1999/02/22-rdf-syntax-ns#"
   xmlns:svg="http://www.w3.org/2000/svg"
   xmlns="http://www.w3.org/2000/svg"
   xmlns:sodipodi="http://sodipodi.sourceforge.net/DTD/sodipodi-0.dtd"
   xmlns:inkscape="http://www.inkscape.org/namespaces/inkscape"
   version="1.1"
   id="Layer_1"
   x="0px"
   y="0px"
   viewBox="0 0 361.20001 365.10001"
   xml:space="preserve"
   sodipodi:docname="app-icon.svg"
   inkscape:version="0.92.1 r15371"
   width="361.20001"
   height="365.10001"><metadata
     id="metadata19"><rdf:RDF><cc:Work
         rdf:about=""><dc:format>image/svg+xml</dc:format><dc:type
           rdf:resource="http://purl.org/dc/dcmitype/StillImage" /><dc:title></dc:title></cc:Work></rdf:RDF></metadata><defs
     id="defs17" /><sodipodi:namedview
     pagecolor="#ffffff"
     bordercolor="#666666"
     borderopacity="1"
     objecttolerance="10"
     gridtolerance="10"
     guidetolerance="10"
     inkscape:pageopacity="0"
     inkscape:pageshadow="2"
     inkscape:window-width="1920"
     inkscape:window-height="1017"
     id="namedview15"
     showgrid="false"
     inkscape:zoom="0.944"
     inkscape:cx="326.01303"
     inkscape:cy="182.03198"
     inkscape:window-x="-8"
     inkscape:window-y="-8"
     inkscape:window-maximized="1"
     inkscape:current-layer="XMLID_1_"
     fit-margin-top="0"
     fit-margin-left="0"
     fit-margin-right="0"
     fit-margin-bottom="0" /><style
     type="text/css"
     id="style2">
	.st0{fill:url(#XMLID_21_);}
	.st1{fill:#FFFFFF;}
</style><g
     id="XMLID_1_"
     transform="translate(-69.3,-67.4)"><linearGradient
       id="XMLID_21_"
       gradientUnits="userSpaceOnUse"
       x1="0.1654"
       y1="-0.1249"
       x2="1.0699"
       y2="-0.1249"
       gradientTransform="matrix(-3.3086,405,-405,-3.3086,201.5171,-0.5078)"><stop
         offset="0"
         style="stop-color:#BB3119"
         id="stop4" /><stop
         offset="1"
         style="stop-color:#812112"
         id="stop6" /></linearGradient><path
       id="XMLID_3_"
       class="st0"
       d="m 76,74.3 c 0,0 11.3,11.6 24.9,-2.3 l 2.1,4 9.8,0.5 2.3,1.8 1.4,-3.7 1.4,0.2 2.5,3.4 1.8,-2.1 4.1,0.2 2.5,2.7 1.6,-1.6 16.4,0.5 3.9,-2.3 0.5,2.3 7.3,0.9 3,-4.1 c 0,0 4.3,6.2 12.1,6.6 7.8,0.5 23.3,-0.5 23.3,-0.5 0,0 4.6,4.3 6.2,0 1.6,-4.3 0,-2.7 0,-2.7 l 6.4,-0.2 c 0,0 2.1,1.1 4.1,-7.8 l 2.3,4.8 1.1,-5 7.1,0.7 c 0,0 3.2,2.5 5.5,-3.2 0,0 17.4,7.3 24.9,0.2 0,0 4.8,4.1 12.8,3.4 8,-0.7 21,6.2 21.2,16.4 0,0 3,-2.5 15.1,-2.3 -0.2,-1.6 6.6,-7.1 0,-11.4 0,0 5.5,-5 69.7,1.8 0,0 3.4,-0.2 0.7,-4.8 -2.7,-4.6 4.3,-2.5 2.7,-2.7 0,0 2.1,14.2 9.8,5.5 0,0 17.8,8.5 18,0.7 l 3.4,2.1 9.8,0.2 c 0,0 -1.1,4.8 10.1,7.1 0,0 4.1,18.5 -1.4,21.5 0,0 6.9,32.7 2.1,89.8 l -10.5,0.2 4.1,10.5 c 0,0 -10.5,3.2 -4.8,13.2 0,0 5.5,-2.3 1.6,1.6 0,0 -0.9,4.1 5,5.3 0,0 -3.4,14.2 3.7,13.7 0,0 -5.5,12.8 -1.4,15.8 0,0 -3.2,5.9 -2.1,16.4 0,0 -1.6,1.8 -4.6,-0.7 0,0 -5.9,5.3 9.6,3.7 l 1.4,147.8 c 0,0 -29.2,-16.9 -40.4,-5.7 l 13.7,1.1 -0.9,1.8 -5.9,0.2 c 0,0 0.2,6.6 -4.3,0.5 0,0 -11,10.3 -31.3,0.2 0,0 -9.8,4.1 -17.8,-2.1 0,0 -5.5,-1.1 -6.6,4.3 0,0 -8.7,-1.6 -20.8,2.1 l 0.9,-3.2 h -1.6 l -0.2,3.9 c 0,0 -1.8,1.6 -4.3,0.7 l 1.6,-5.5 c 0,0 -3.7,-1.1 -5,2.3 l 3,-0.7 -0.9,3.9 c 0,0 -7.1,7.1 -15.8,1.4 l 8.9,-0.7 c 0,0 1.6,-1.1 1.4,-2.7 0,0 -34.9,-0.5 -33.8,2.3 l 2.7,2.1 c 0,0 -11.6,4.3 -16.9,0.7 l -0.2,-3.4 -1.8,0.2 -3,4.3 c 0,0 -5,-8.9 -20.6,-3.9 l 1.1,3.9 c 0,0 -5.5,-0.5 -7.5,2.1 l -8.7,-14.2 c 0,0 -12.8,5.9 -19.2,-0.9 0,0 -1.1,0.2 -1.6,3.4 0,0 -5.3,-0.2 -7.8,-8.2 0,0 -4.1,1.1 -2.5,8.2 0,0 -4.3,-4.8 -4.6,-7.5 l -3.2,3.4 2.3,2.7 -1.1,1.4 c 0,0 -4.8,-5 -6.9,-3.9 l 0.2,3 -2.1,0.7 -2.7,-4.1 c 0,0 -3,1.6 -3.2,3.9 l -1.1,-1.6 -1.6,1.1 h -2.1 c 0,0 -0.7,-4.6 -1.8,-5.3 l -1.1,3 h -4.1 v -2.7 l -3.9,2.7 c 0,0 -4.6,-0.7 -5.5,3.7 l -2.5,-1.1 c 0,0 0.5,-4.8 -1.4,-6.9 0,0 -2.5,-1.1 -3,4.8 0,0 -3,1.1 -3.9,-3.2 H 129 l 0.5,5.7 c 0,0 -1.1,-4.1 -10.5,-3 0,0 -10.7,0.7 -12.1,-3 l -0.9,5.7 c 0,0 -0.7,-5 -10.7,-0.5 l -2.3,-0.2 0.2,-3 h -1.4 l -0.9,5 -2.3,-0.5 c 0,0 2.3,-3.9 -0.2,-4.8 0,0 -3.7,0.9 -4.1,4.6 l -2.3,-1.1 0.2,-5 -10.5,-1.6 c 0,0 6.9,-12.3 1.8,-53 0,0 0.2,-14.2 2.5,-17.8 l 5.5,-0.2 1.6,-38.8 -7.1,-1.1 c 0,0 -3.2,-14.4 -1.4,-46.8 0,0 1.1,-0.7 4.3,2.1 l 0.9,-1.6 -3.2,-1.8 0.2,-3.4 6.2,3.4 0.5,-13.7 c 0,0 -12.6,-5.7 -4.6,-26 0,0 -11.2,-35.2 -3.4,-117.2 l -2.1,-1.1 c 0,0 -0.7,5.5 -4.1,0.2 l 0.7,-18.5 4.1,0.5 -0.5,1.4 -1.6,0.5 0.7,8.5 1.4,0.2 z"
       inkscape:connector-curvature="0"
       style="fill:url(#XMLID_21_)" /><path
       id="XMLID_5_"
       class="st1"
       d="m 139.7,287.2 71.3,68.9 -50.5,16.2 -3.1,-1.9 c 0,0 -1,4.3 -5.6,1.3 0,0 1.9,3.3 4,-2.4 0,0 -0.8,-1.8 -1.9,0 l -0.8,1.7 -0.2,-3.3 -2.1,1.4 -1.6,-0.2 -0.3,3 -30.2,-22.4 c 0,0 -4.3,-1.6 -0.9,-12 3.4,-10.5 21.9,-50.3 21.9,-50.3 z"
       inkscape:connector-curvature="0"
       style="fill:#ffffff" /><path
       id="XMLID_6_"
       class="st1"
       d="m 354.7,198.7 7.3,-46.9 -2.1,0.1 0.2,1.8 c 0,0 -0.9,4 -1.8,0.5 -0.9,-3.5 1.1,-4.6 1.1,-4.6 l 2.4,0.7 0.1,-1.5 -15.9,-11.6 c 0,0 -5.6,-4.2 -16.7,-0.7 -11.1,3.5 -45.5,12.2 -45.5,12.2 l 60,46 0.8,-1.6 -2.9,-1.4 c 0,0 -1.9,-2.4 1.7,-2.3 3.7,0.1 2.7,7 2.7,7 h 3.4 l 1.9,2.5 z"
       inkscape:connector-curvature="0"
       style="fill:#ffffff" /><g
       transform="matrix(0.91972119,-1.078388,1.1434304,0.86740417,-43.601171,267.32162)"
       id="g6"
       style="fill:#ffffff"><path
         inkscape:connector-curvature="0"
         d="m 156.716,61.478 c -4.111,6.276 -8.881,11.511 -14.212,15.609 l -8.728,6.962 c -13.339,11.855 -22.937,21.433 -28.542,28.464 -10.209,12.788 -15.806,25.779 -16.65,38.611 -0.942,14.473 3.187,28.21 12.275,40.84 9.636,13.458 21.8,20.754 36.164,21.69 3.291,0.218 6.897,0.182 9.896,-0.015 l -1.121,-10.104 c -2.09,0.192 -4.306,0.223 -6.628,0.068 -9.437,-0.617 -17.864,-4.511 -25.064,-11.573 -7.524,-7.333 -10.895,-15.415 -10.287,-24.7 1.149,-17.59 12.562,-35.004 33.925,-51.792 l 9.543,-7.599 c 8.394,-7.174 15.192,-16.191 20.216,-26.825 4.971,-10.556 7.886,-21.983 8.673,-33.96 0.466,-7.037 -0.513,-15.775 -2.874,-25.965 C 170.061,7.35 165.448,0.424 159.166,0.01 c -2.232,-0.138 -4.676,0.986 -7.658,3.617 -7.252,6.548 -12.523,14.481 -15.683,23.542 -2.438,6.926 -4.057,16.189 -4.805,27.529 -0.313,4.72 0.313,13.438 1.805,23.962 l 8.844,-8.192 c -0.028,-1.183 0.005,-2.413 0.096,-3.703 0.466,-7.221 2.289,-15.062 5.394,-23.293 3.956,-10.296 7.689,-13.409 10.133,-14.204 0.668,-0.218 1.32,-0.298 2.015,-0.254 3.185,0.212 6.358,1.559 5.815,9.979 -0.458,7.139 -3.291,14.7 -8.406,22.485 z"
         id="path2"
         style="fill:#ffffff" /><path
         inkscape:connector-curvature="0"
         d="m 164.55,209.161 c 5.728,-2.568 10.621,-6.478 14.576,-11.651 5.055,-6.561 7.897,-14.316 8.467,-23.047 0.72,-10.719 -1.854,-20.438 -7.617,-28.895 -6.322,-9.264 -14.98,-14.317 -25.745,-15.026 -1.232,-0.081 -2.543,-0.075 -3.895,0.025 l -2.304,-17.191 -9.668,7.112 1.483,12.194 c -5.789,2.393 -10.827,6.17 -15.017,11.255 -4.823,5.924 -7.508,12.443 -7.964,19.382 -0.466,7.208 1.142,13.81 4.782,19.583 1.895,3.081 4.507,5.82 7.498,8.058 4.906,3.65 10.563,3.376 11.459,1.393 0.906,-1.983 -2.455,-5.095 -5.09,-9.248 -1.502,-2.351 -2.242,-5.173 -2.242,-8.497 0,-7.053 4.256,-13.116 10.317,-15.799 l 5.673,44.211 1.325,10.258 c 0.864,4.873 1.719,9.725 2.537,14.52 1,6.488 1.352,12.112 1.041,16.715 -0.419,6.375 -2.408,11.584 -5.919,15.493 -2.234,2.485 -4.844,4.055 -7.795,4.925 3.961,-3.962 6.414,-9.43 6.414,-15.478 0,-12.075 -9.792,-21.872 -21.87,-21.872 -3.353,0 -6.491,0.812 -9.329,2.159 -0.36,0.155 -0.699,0.388 -1.054,0.574 -0.779,0.425 -1.559,0.85 -2.286,1.362 -0.249,0.187 -0.487,0.403 -0.732,0.605 -4.888,3.816 -8.091,9.616 -8.375,16.229 0,0.01 -0.011,0.021 -0.011,0.031 0,0.005 0,0.01 0,0.016 -0.013,0.311 -0.09,0.59 -0.09,0.896 0,0.259 0.067,0.492 0.078,0.74 -0.011,7.084 2.933,13.179 8.839,18.118 5.584,4.666 12.277,7.28 19.892,7.777 4.327,0.28 8.505,-0.217 12.407,-1.485 3.189,-1.041 6.275,-2.62 9.149,-4.687 6.96,-5.022 10.75,-11.584 11.272,-19.532 0.399,-6.063 0.094,-13.235 -0.937,-21.411 l -2.838,-18.429 -7.156,-52.899 c 7.984,1.532 14.027,8.543 14.027,16.968 0,5.986 -1.937,15.431 -5.551,20.376 z"
         id="path4"
         style="fill:#ffffff" /></g></g></svg>